PathFileType	4	(X/Y/Z)	D:\TRACE\spotREDO_2-26-24\spot_baseline_4-platform.trc
DataRate	CameraRate	NumFrames	NumMarkers	Units	OrigDataRate	OrigDataStartFrame	OrigNumFrames
100.00	100.00	      62	5	mm	100.00	4376	      7000
Frame#	Time	Left_Front			Right_Front			Left_Aft			Right_Aft			Post			
		X1	Y1	Z1	X2	Y2	Z2	X3	Y3	Z3	X4	Y4	Z4	X5	Y5	Z5	

4376	43.750	-696.96667	-3.84200	-575.61371	718.23358	4.88854	-490.77420	-768.22314	4.84446	643.49493	801.27045	11.42098	647.81213	4.52115	741.34717	-983.06049	
4377	43.760	-696.97992	-3.83317	-575.61859	718.24597	4.96277	-490.75250	-768.22083	4.74007	643.48920	801.16498	11.38207	647.77466	4.40777	741.44702	-982.92358	
4378	43.770	-696.97107	-3.84566	-575.60480	718.09930	5.16804	-490.97305	-768.21552	4.79892	643.47809	801.18359	11.36386	647.82965	4.39313	741.39832	-982.85962	
4379	43.780	-696.99518	-3.86156	-575.60217	718.04681	5.11245	-490.97296	-768.22852	4.85945	643.48297	801.17651	11.37289	647.81055	4.37090	741.36084	-982.75702	
4380	43.790	-696.96771	-3.89727	-575.59601	718.24170	4.91518	-490.77063	-768.22290	4.76045	643.46429	801.23425	11.49802	647.83942	4.35260	741.36023	-982.67963	
4381	43.800	-697.00592	-3.85090	-575.61127	718.17047	4.88079	-490.76111	-768.20148	4.82194	643.49048	801.32043	11.53290	647.85101	4.33450	741.40814	-982.64844	
4382	43.810	-696.97131	-3.86080	-575.60132	718.24915	4.94498	-490.76605	-768.20013	4.83258	643.44659	801.33179	11.54643	647.86359	4.29371	741.45331	-982.63324	
4383	43.820	-696.97607	-3.87032	-575.60785	718.22192	4.91587	-490.75555	-768.21820	4.79811	643.47760	801.27606	11.48121	647.86584	4.38829	741.40454	-982.71460	
4384	43.830	-696.98785	-3.86492	-575.60138	718.21375	4.95390	-490.79544	-768.23657	4.82710	643.51617	801.17548	11.43367	647.86218	4.43575	741.42706	-982.80536	
4385	43.840	-697.01373	-3.83936	-575.59442	718.04712	5.10231	-490.94537	-768.23175	4.78011	643.50824	801.11401	11.30048	647.84100	4.43383	741.41064	-982.89844	
4386	43.850	-696.95190	-3.85678	-575.58582	718.17426	4.95599	-490.82291	-768.22687	4.80260	643.50739	801.18933	11.38157	647.83252	4.45603	741.40601	-982.96124	
4387	43.860	-696.98358	-3.81248	-575.59161	718.11243	5.19004	-490.95917	-768.17194	4.79794	643.46588	801.17816	11.38102	647.75739	4.50868	741.41064	-982.95721	
4388	43.870	-696.94751	-3.88994	-575.59320	718.25073	4.92411	-490.75430	-768.19855	4.80243	643.51086	801.09387	11.31485	647.75409	4.41091	741.39832	-982.91827	
4389	43.880	-696.95947	-3.88464	-575.62817	718.06873	5.14608	-490.92380	-768.20306	4.83004	643.48718	801.10400	11.31525	647.72638	4.45290	741.32379	-982.90869	
4390	43.890	-696.98102	-3.91125	-575.59381	718.20819	4.88447	-490.74579	-768.19543	4.77269	643.47888	801.06879	11.32872	647.71027	4.44001	741.31335	-982.91223	
4391	43.900	-696.99438	-3.85348	-575.61267	718.22162	4.89521	-490.79718	-768.21918	4.76350	643.46545	801.07745	11.34428	647.69122	4.39532	741.33740	-982.87238	
4392	43.910	-696.96558	-3.88700	-575.65381	718.09509	5.08544	-490.95352	-768.19623	4.80981	643.45276	801.02881	11.36286	647.70471	4.43145	741.36731	-982.80914	
4393	43.920	-697.00696	-3.84287	-575.62506	718.21881	4.93674	-490.79062	-768.22156	4.80306	643.49628	801.11963	11.34987	647.71454	4.40292	741.38416	-982.82056	
4394	43.930	-696.96442	-3.85875	-575.59192	718.20081	4.94518	-490.78769	-768.18353	4.81917	643.52478	801.09113	11.33610	647.71777	4.39898	741.41034	-982.83496	
4395	43.940	-696.97974	-3.87685	-575.57037	718.25458	4.90301	-490.75409	-768.23535	4.80518	643.50720	801.22827	11.02107	647.31866	4.44769	741.40448	-982.87421	
4396	43.950	-696.96106	-3.87339	-575.59741	718.21216	4.92709	-490.83307	-768.18311	4.76888	643.52576	801.15778	11.31905	647.79211	4.40843	741.40833	-982.88379	
4397	43.960	-696.98853	-3.86004	-575.59229	718.18781	4.92600	-490.76147	-768.22980	4.79621	643.50385	801.50006	11.64204	647.93726	4.43097	741.39856	-982.89233	
4398	43.970	-696.96704	-3.85745	-575.60065	718.21417	4.92104	-490.81226	-768.20972	4.82052	643.50665	801.59894	11.70901	648.04059	4.40252	741.42230	-982.83392	
4399	43.980	-696.98346	-3.87730	-575.59064	718.10358	5.14101	-490.95901	-768.18921	4.83517	643.50470	801.53027	11.73125	648.06586	4.38451	741.41785	-982.81812	
4400	43.990	-696.98352	-3.89107	-575.59485	718.09039	5.17928	-490.93054	-768.20819	4.80838	643.48853	801.60730	11.80896	648.06537	4.43916	741.38110	-982.83685	
4401	44.000	-696.97418	-3.86722	-575.61542	718.11652	5.08991	-491.01529	-768.21924	4.84310	643.50031	801.66254	11.87017	648.07794	4.38994	741.36768	-982.81049	
4402	44.010	-696.98853	-3.84654	-575.61292	718.20142	4.91783	-490.79526	-768.08881	5.10570	643.56964	801.64539	11.85122	648.02643	4.47986	741.36792	-982.86780	
4403	44.020	-696.96155	-3.87453	-575.62219	718.05096	5.26224	-490.98880	-768.15161	5.10007	643.64447	801.73511	12.02979	648.04321	4.44295	741.37823	-982.88171	
4404	44.030	-696.97675	-3.83580	-575.59650	718.05438	5.16200	-491.01993	-768.21881	4.65877	643.49719	801.69348	11.78063	648.07404	4.41969	741.38763	-982.95874	
4405	44.040	-696.99481	-3.83488	-575.57886	718.23236	4.96057	-490.76364	-768.20825	4.82430	643.47125	801.78229	11.84531	648.22894	4.46598	741.42072	-982.93988	
4406	44.050	-696.97534	-3.88332	-575.63007	718.25757	4.94825	-490.77011	-768.19684	4.80365	643.47052	801.71741	11.79791	648.05878	4.51933	741.38574	-982.97327	
4407	44.060	-696.97937	-3.84262	-575.61096	718.19312	4.88823	-490.78934	-768.21191	4.83878	643.50354	801.61646	11.85255	648.04559	4.53230	741.29059	-982.97241	
4408	44.070	-697.02167	-3.82952	-575.60406	718.21545	4.94041	-490.77795	-768.15399	4.95002	643.54865	801.65771	11.80920	648.07501	4.50929	741.31335	-982.95526	
4409	44.080	-696.97351	-3.87686	-575.59943	718.21307	5.00447	-490.75949	-768.14740	5.04259	643.63818	801.73535	11.85281	648.05701	4.38064	741.46985	-982.81372	
4410	44.090	-696.98816	-3.86550	-575.57806	718.24377	4.97851	-490.78842	-768.20758	4.81942	643.47369	801.72058	11.88668	648.07874	4.39538	741.44818	-982.80988	
4411	44.100	-696.97345	-3.93284	-575.58453	718.21069	4.98404	-490.77710	-768.16974	4.89204	643.55182	801.71851	11.82710	648.05560	4.40992	741.37140	-982.77399	
4412	44.110	-696.98236	-3.92030	-575.57849	718.06250	5.12580	-490.96182	-768.22070	4.80350	643.48669	801.61255	11.75907	648.08142	4.43986	741.35718	-982.79926	
4413	44.120	-696.97906	-3.86006	-575.64417	718.16797	4.90763	-490.80637	-768.20148	4.83484	643.47217	801.66632	11.86085	648.08002	4.38908	741.44537	-982.77002	
4414	44.130	-696.98676	-3.83130	-575.59924	718.19495	4.98195	-490.80255	-768.19781	4.79468	643.47339	801.61310	11.77417	648.06360	4.37015	741.47174	-982.73138	
4415	44.140	-696.99078	-3.82937	-575.59930	718.27380	4.99091	-490.71725	-768.12115	5.08086	643.64795	801.70221	11.84147	648.07172	4.39574	741.48315	-982.75470	
4416	44.150	-696.96509	-3.84930	-575.60724	718.24939	4.97016	-490.74927	-768.13245	5.13866	643.65424	801.62128	11.80677	648.06854	4.45748	741.41504	-982.75439	
4417	44.160	-696.93329	-3.85468	-575.60272	718.20203	4.89315	-490.78146	-768.18481	4.82174	643.47687	801.78870	11.87247	648.08710	4.45864	741.38263	-982.84436	
4418	44.170	-696.94214	-3.87332	-575.61041	718.03021	5.02426	-491.02194	-768.26746	4.81882	643.50293	801.73535	11.83154	648.09070	4.48053	741.37964	-982.88690	
4419	44.180	-696.98071	-3.84215	-575.59924	718.05640	5.12433	-490.90207	-768.18213	4.84139	643.52301	801.67303	11.84683	648.07904	4.44116	741.35614	-982.94879	
4420	44.190	-696.96991	-3.87127	-575.60571	718.24536	4.97773	-490.76520	-768.12311	5.06054	643.60699	801.75275	11.84086	648.06860	4.43581	741.42615	-982.92761	
4421	44.200	-697.01080	-3.81524	-575.61115	718.24591	5.01182	-490.74503	-768.15735	5.10229	643.65979	801.60901	11.78041	648.03754	4.43843	741.43103	-982.90265	
4422	44.210	-696.98053	-3.85973	-575.57861	718.24792	4.95059	-490.73846	-768.18585	4.90118	643.50342	801.57416	11.71190	648.06940	4.54433	741.33295	-982.92554	
4423	44.220	-696.98834	-3.88031	-575.58856	718.19012	4.92039	-490.79291	-768.21332	4.82248	643.50085	801.68280	11.80082	648.07074	4.46932	741.35913	-982.88306	
4424	44.230	-696.99176	-3.88216	-575.62555	718.18671	4.88353	-490.79483	-768.18146	4.81367	643.48804	801.65778	11.81766	648.11761	4.35637	741.41211	-982.78571	
4425	44.240	-696.98450	-3.83909	-575.60303	718.09821	5.13277	-491.03122	-768.23669	4.84909	643.51172	801.75543	11.85954	648.06891	4.36613	741.42621	-982.74579	
4426	44.250	-696.96552	-3.82714	-575.58228	718.23987	5.01878	-490.73285	-768.19800	4.87100	643.50842	801.79590	11.87770	648.07837	4.35973	741.46722	-982.68933	
4427	44.260	-696.96106	-3.86699	-575.57391	718.15125	5.22017	-490.93222	-768.12738	5.08155	643.63245	801.52350	11.71302	647.99304	4.41040	741.41229	-982.69604	
4428	44.270	-696.97510	-3.91359	-575.61499	718.22247	4.91711	-490.76352	-768.21484	4.85791	643.52490	801.39703	11.56169	647.93109	4.35005	741.43610	-982.68805	
4429	44.280	-696.98981	-3.88024	-575.61316	718.07764	5.03765	-490.99701	-768.21948	4.82604	643.51312	801.13562	11.32645	647.74365	4.33703	741.42462	-982.77313	
4430	44.290	-696.98022	-3.83776	-575.60938	718.04053	5.11050	-490.96698	-768.23889	4.84095	643.50140	801.07074	11.31022	647.71558	4.35097	741.44189	-982.77289	
4431	44.300	-696.96979	-3.84202	-575.59192	718.24713	4.94690	-490.78122	-768.13104	5.05392	643.63513	801.11749	11.32739	647.71979	4.42576	741.41443	-982.82312	
4432	44.310	-696.96179	-3.87589	-575.59863	718.25732	4.98419	-490.73401	-768.21619	4.96089	643.51685	801.09814	11.31971	647.71924	4.45114	741.41571	-982.82306	
4433	44.320	-696.95544	-3.88224	-575.58698	718.25159	4.97899	-490.75369	-768.20056	4.87362	643.50537	801.14264	11.30363	647.70831	4.42018	741.37018	-982.87823	
4434	44.330	-696.98761	-3.86607	-575.59705	718.15961	4.89768	-490.83142	-768.18823	4.79488	643.49609	801.14838	11.32596	647.70337	4.43160	741.38025	-982.89429	
4435	44.340	-696.98816	-3.85568	-575.59998	718.17139	4.84877	-490.77554	-768.18878	4.81586	643.46216	801.10712	11.32443	647.67804	4.43063	741.35779	-982.90857	
4436	44.350	-696.99237	-3.83847	-575.59595	718.18109	4.94698	-490.81171	-768.18250	4.83701	643.51862	801.12256	11.36881	647.72888	4.42174	741.43079	-982.85760	
4437	44.360	-696.96545	-3.87180	-575.60870	718.26166	4.97421	-490.76486	-768.20972	4.87796	643.49316	801.12714	11.30405	647.66956	4.42843	741.41083	-982.84668	
